<mxfile host="app.diagrams.net" modified="2020-07-31T08:13:36.785Z" agent="5.0 (Windows NT 10.0; Win64; x64) AppleWebKit/537.36 (KHTML, like Gecko) Chrome/84.0.4147.105 Safari/537.36" etag="DdGqe_RlGE-Z5HWOMrwQ" version="13.5.6" type="github">
  <diagram id="mx5xO8MXj_wtuOzBioYk" name="Page-1">
    <mxGraphModel dx="5557" dy="1965" grid="1" gridSize="10" guides="1" tooltips="1" connect="1" arrows="1" fold="1" page="1" pageScale="1" pageWidth="827" pageHeight="1169" math="0" shadow="0">
      <root>
        <mxCell id="0" />
        <mxCell id="1" parent="0" />
        <mxCell id="bMi5j8niDINSL1hWA75Q-1" value="&lt;b&gt;&#39;Exam planning&#39; employee&lt;/b&gt;&lt;div&gt;[Person]&lt;/div&gt;&lt;br&gt;&lt;div&gt;An employee working&amp;nbsp;&lt;/div&gt;&lt;div&gt;at the &#39;Exam planning&#39;&amp;nbsp;&lt;/div&gt;&lt;div&gt;department&lt;/div&gt;" style="html=1;dashed=0;whitespace=wrap;fillColor=#DAE8FC;strokeColor=#6C8EBF;shape=mxgraph.c4.person;align=center;points=[[0.5,0,0],[1,0.5,0],[1,0.75,0],[0.75,1,0],[0.5,1,0],[0.25,1,0],[0,0.75,0],[0,0.5,0]];verticalAlign=top;" parent="1" vertex="1">
          <mxGeometry x="-540" y="-960" width="160" height="160" as="geometry" />
        </mxCell>
        <mxCell id="KyEjvWDegDpbveLdocbA-1" value="&lt;b style=&quot;font-size: 24px&quot;&gt;&lt;font face=&quot;Helvetica&quot; style=&quot;font-size: 24px&quot;&gt;Container diagram for the&amp;nbsp; &#39;Digital Exam planning&#39; System, &lt;font style=&quot;font-size: 24px&quot;&gt;&#39;Learn-with-me&#39; company (LWM)&lt;/font&gt;&lt;/font&gt;&lt;/b&gt;" style="text;html=1;strokeColor=none;fillColor=none;align=center;verticalAlign=middle;whiteSpace=wrap;rounded=0;fontFamily=Verdana;" parent="1" vertex="1">
          <mxGeometry x="-1654" y="-1140" width="1150" height="20" as="geometry" />
        </mxCell>
        <mxCell id="KyEjvWDegDpbveLdocbA-2" value="&lt;b&gt;Professional trainer&lt;/b&gt;&lt;br&gt;&lt;div&gt;[Person]&lt;/div&gt;&lt;br&gt;&lt;div&gt;An individual contractor&amp;nbsp;&lt;/div&gt;&lt;div&gt;of LWM, delivering trainings&amp;nbsp;&lt;/div&gt;&lt;div&gt;and&amp;nbsp;&lt;/div&gt;&lt;div&gt;marking/supervising exams&amp;nbsp;&lt;br&gt;&lt;/div&gt;&lt;div&gt;&lt;br&gt;&lt;/div&gt;" style="html=1;dashed=0;whitespace=wrap;fillColor=#DAE8FC;strokeColor=#6C8EBF;shape=mxgraph.c4.person;align=center;points=[[0.5,0,0],[1,0.5,0],[1,0.75,0],[0.75,1,0],[0.5,1,0],[0.25,1,0],[0,0.75,0],[0,0.5,0]];verticalAlign=top;" parent="1" vertex="1">
          <mxGeometry x="-210" y="-969" width="152.5" height="170" as="geometry" />
        </mxCell>
        <mxCell id="KyEjvWDegDpbveLdocbA-3" value="&lt;div&gt;&lt;b&gt;Trainee&lt;/b&gt;&lt;/div&gt;&lt;div&gt;[Person]&lt;/div&gt;&lt;div&gt;&lt;br&gt;&lt;/div&gt;&lt;div&gt;A client of LWM, attending&amp;nbsp;&lt;/div&gt;&lt;div&gt;trainnings and examinations&lt;/div&gt;" style="html=1;dashed=0;whitespace=wrap;fillColor=#DAE8FC;strokeColor=#6C8EBF;shape=mxgraph.c4.person;align=center;points=[[0.5,0,0],[1,0.5,0],[1,0.75,0],[0.75,1,0],[0.5,1,0],[0.25,1,0],[0,0.75,0],[0,0.5,0]];verticalAlign=top;" parent="1" vertex="1">
          <mxGeometry x="10" y="-968" width="150" height="169" as="geometry" />
        </mxCell>
        <mxCell id="1jzdavhGLnp2UJtIogLx-1" value="&lt;b&gt;Legacy &#39;LWM&#39; backoffice&lt;/b&gt;&lt;div&gt;[Software System]&lt;/div&gt;&lt;br&gt;&lt;div&gt;stores all information about trainings (structure, current organization) so also exam information&lt;/div&gt;" style="rounded=1;whiteSpace=wrap;html=1;labelBackgroundColor=none;fillColor=#dae8fc;fontColor=#000000;align=center;arcSize=10;strokeColor=#6c8ebf;points=[[0.25,0,0],[0.5,0,0],[0.75,0,0],[1,0.25,0],[1,0.5,0],[1,0.75,0],[0.75,1,0],[0.5,1,0],[0.25,1,0],[0,0.75,0],[0,0.5,0],[0,0.25,0]];" parent="1" vertex="1">
          <mxGeometry x="-1600" y="-588" width="190" height="132" as="geometry" />
        </mxCell>
        <mxCell id="1jzdavhGLnp2UJtIogLx-2" value="&lt;b&gt;e-mail System&lt;/b&gt;&lt;div&gt;[Software System]&lt;/div&gt;&lt;br&gt;&lt;div&gt;internal Exchange system&lt;/div&gt;" style="rounded=1;whiteSpace=wrap;html=1;labelBackgroundColor=none;fillColor=#dae8fc;fontColor=#000000;align=center;arcSize=10;strokeColor=#6c8ebf;points=[[0.25,0,0],[0.5,0,0],[0.75,0,0],[1,0.25,0],[1,0.5,0],[1,0.75,0],[0.75,1,0],[0.5,1,0],[0.25,1,0],[0,0.75,0],[0,0.5,0],[0,0.25,0]];" parent="1" vertex="1">
          <mxGeometry x="230" y="-282" width="160" height="110.00000000000001" as="geometry" />
        </mxCell>
        <mxCell id="1jzdavhGLnp2UJtIogLx-5" value="&lt;b&gt;Trainers Registry&lt;/b&gt;&lt;br&gt;&lt;div&gt;[Software System]&lt;/div&gt;&lt;br&gt;&lt;div&gt;exposes relevant information about trainers (as competencies, contact)&lt;/div&gt;" style="rounded=1;whiteSpace=wrap;html=1;labelBackgroundColor=none;fillColor=#dae8fc;fontColor=#000000;align=center;arcSize=10;strokeColor=#6c8ebf;points=[[0.25,0,0],[0.5,0,0],[0.75,0,0],[1,0.25,0],[1,0.5,0],[1,0.75,0],[0.75,1,0],[0.5,1,0],[0.25,1,0],[0,0.75,0],[0,0.5,0],[0,0.25,0]];" parent="1" vertex="1">
          <mxGeometry x="-1330" y="-280" width="160" height="110.00000000000001" as="geometry" />
        </mxCell>
        <mxCell id="1jzdavhGLnp2UJtIogLx-6" value="&lt;b&gt;Trainees Registry&lt;/b&gt;&lt;br&gt;&lt;div&gt;[Software System]&lt;/div&gt;&lt;br&gt;&lt;div&gt;exposes relevant information about trainees&lt;/div&gt;" style="rounded=1;whiteSpace=wrap;html=1;labelBackgroundColor=none;fillColor=#dae8fc;fontColor=#000000;align=center;arcSize=10;strokeColor=#6c8ebf;points=[[0.25,0,0],[0.5,0,0],[0.75,0,0],[1,0.25,0],[1,0.5,0],[1,0.75,0],[0.75,1,0],[0.5,1,0],[0.25,1,0],[0,0.75,0],[0,0.5,0],[0,0.25,0]];" parent="1" vertex="1">
          <mxGeometry x="-1110" y="-280" width="160" height="110.00000000000001" as="geometry" />
        </mxCell>
        <mxCell id="1jzdavhGLnp2UJtIogLx-10" value="&lt;b&gt;Locations Registry&lt;/b&gt;&lt;br&gt;&lt;div&gt;[Container: Web Api]&lt;/div&gt;&lt;br&gt;&lt;div&gt;exposes relevant information about locations - reservable for an exam&lt;/div&gt;" style="rounded=1;whiteSpace=wrap;html=1;labelBackgroundColor=none;fillColor=#dae8fc;fontColor=#000000;align=center;arcSize=10;strokeColor=#6c8ebf;points=[[0.25,0,0],[0.5,0,0],[0.75,0,0],[1,0.25,0],[1,0.5,0],[1,0.75,0],[0.75,1,0],[0.5,1,0],[0.25,1,0],[0,0.75,0],[0,0.5,0],[0,0.25,0]];" parent="1" vertex="1">
          <mxGeometry x="-860" y="-280" width="160" height="110.00000000000001" as="geometry" />
        </mxCell>
        <mxCell id="1jzdavhGLnp2UJtIogLx-13" value="&lt;div style=&quot;text-align: left&quot;&gt;&lt;div style=&quot;text-align: center&quot;&gt;&lt;b&gt;sends confirmations&lt;/b&gt;&lt;/div&gt;&lt;div style=&quot;text-align: center&quot;&gt;&lt;b&gt;&amp;nbsp;reminders&lt;/b&gt;&lt;/div&gt;&lt;/div&gt;" style="edgeStyle=none;rounded=0;html=1;jettySize=auto;orthogonalLoop=1;strokeColor=#A8A8A8;strokeWidth=2;fontColor=#000000;jumpStyle=none;dashed=1;entryX=0.5;entryY=0;entryDx=0;entryDy=0;entryPerimeter=0;exitX=0.167;exitY=-0.012;exitDx=0;exitDy=0;exitPerimeter=0;" parent="1" source="1jzdavhGLnp2UJtIogLx-2" target="KyEjvWDegDpbveLdocbA-3" edge="1">
          <mxGeometry x="0.6254" width="200" relative="1" as="geometry">
            <mxPoint x="240" y="-582" as="sourcePoint" />
            <mxPoint x="-20" y="-990" as="targetPoint" />
            <Array as="points">
              <mxPoint x="250" y="-820" />
              <mxPoint x="250" y="-990" />
              <mxPoint x="85" y="-990" />
            </Array>
            <mxPoint as="offset" />
          </mxGeometry>
        </mxCell>
        <mxCell id="1jzdavhGLnp2UJtIogLx-14" value="&lt;div style=&quot;text-align: left&quot;&gt;&lt;div style=&quot;text-align: center&quot;&gt;&lt;b&gt;sends confirmations&lt;/b&gt;&lt;/div&gt;&lt;div style=&quot;text-align: center&quot;&gt;&lt;b&gt;&amp;nbsp;reminders&lt;/b&gt;&lt;/div&gt;&lt;/div&gt;" style="edgeStyle=none;rounded=0;html=1;jettySize=auto;orthogonalLoop=1;strokeColor=#A8A8A8;strokeWidth=2;fontColor=#000000;jumpStyle=none;dashed=1;entryX=0.5;entryY=0;entryDx=0;entryDy=0;entryPerimeter=0;" parent="1" target="KyEjvWDegDpbveLdocbA-2" edge="1">
          <mxGeometry x="0.6627" width="200" relative="1" as="geometry">
            <mxPoint x="281" y="-285" as="sourcePoint" />
            <mxPoint x="-184" y="-970" as="targetPoint" />
            <Array as="points">
              <mxPoint x="281" y="-920" />
              <mxPoint x="281" y="-1000" />
              <mxPoint x="281" y="-1020" />
              <mxPoint x="-134" y="-1020" />
            </Array>
            <mxPoint as="offset" />
          </mxGeometry>
        </mxCell>
        <mxCell id="1jzdavhGLnp2UJtIogLx-15" value="&lt;div style=&quot;text-align: left&quot;&gt;&lt;div style=&quot;text-align: center&quot;&gt;&lt;b&gt;sends copies of&amp;nbsp; location reminders&lt;/b&gt;&lt;/div&gt;&lt;/div&gt;" style="edgeStyle=none;rounded=0;html=1;jettySize=auto;orthogonalLoop=1;strokeColor=#A8A8A8;strokeWidth=2;fontColor=#000000;jumpStyle=none;dashed=1;entryX=0.5;entryY=0;entryDx=0;entryDy=0;entryPerimeter=0;exitX=0.5;exitY=0;exitDx=0;exitDy=0;exitPerimeter=0;" parent="1" source="1jzdavhGLnp2UJtIogLx-2" target="bMi5j8niDINSL1hWA75Q-1" edge="1">
          <mxGeometry x="0.733" width="200" relative="1" as="geometry">
            <mxPoint x="310" y="-580" as="sourcePoint" />
            <mxPoint x="-460" y="-1060" as="targetPoint" />
            <Array as="points">
              <mxPoint x="310" y="-1060" />
              <mxPoint x="-460" y="-1060" />
            </Array>
            <mxPoint as="offset" />
          </mxGeometry>
        </mxCell>
        <mxCell id="1jzdavhGLnp2UJtIogLx-16" value="&lt;div&gt;&lt;b&gt;Location admin&lt;/b&gt;&lt;/div&gt;&lt;div&gt;[Person]&lt;/div&gt;&lt;div&gt;&lt;br&gt;&lt;/div&gt;&lt;div&gt;outside of the organization&lt;/div&gt;" style="html=1;dashed=0;whitespace=wrap;fillColor=#DAE8FC;strokeColor=#6C8EBF;shape=mxgraph.c4.person;align=center;points=[[0.5,0,0],[1,0.5,0],[1,0.75,0],[0.75,1,0],[0.5,1,0],[0.25,1,0],[0,0.75,0],[0,0.5,0]];verticalAlign=top;" parent="1" vertex="1">
          <mxGeometry x="520" y="-626" width="160" height="170" as="geometry" />
        </mxCell>
        <mxCell id="1jzdavhGLnp2UJtIogLx-17" value="&lt;div style=&quot;text-align: left&quot;&gt;&lt;div style=&quot;text-align: center&quot;&gt;&lt;b&gt;upcoming, confirmed&lt;/b&gt;&lt;/div&gt;&lt;div style=&quot;text-align: center&quot;&gt;&lt;b&gt;&amp;nbsp;location reservations&amp;nbsp;&lt;/b&gt;&lt;/div&gt;&lt;/div&gt;" style="edgeStyle=none;rounded=0;html=1;jettySize=auto;orthogonalLoop=1;strokeColor=#A8A8A8;strokeWidth=2;fontColor=#000000;jumpStyle=none;dashed=1;entryX=0;entryY=0.588;entryDx=0;entryDy=0;entryPerimeter=0;exitX=0.75;exitY=0;exitDx=0;exitDy=0;exitPerimeter=0;" parent="1" source="1jzdavhGLnp2UJtIogLx-2" target="1jzdavhGLnp2UJtIogLx-16" edge="1">
          <mxGeometry x="0.1787" y="-70" width="200" relative="1" as="geometry">
            <mxPoint x="330" y="-530" as="sourcePoint" />
            <mxPoint x="519" y="-260" as="targetPoint" />
            <Array as="points">
              <mxPoint x="350" y="-526" />
            </Array>
            <mxPoint x="70" y="-70" as="offset" />
          </mxGeometry>
        </mxCell>
        <object label="&lt;span&gt;&lt;b&gt;dXM Portal&lt;/b&gt;&lt;/span&gt;&lt;div&gt;[Container:&amp;nbsp;&lt;span&gt;Mendix&lt;/span&gt;&lt;span&gt;]&lt;/span&gt;&lt;/div&gt;&lt;div&gt;&lt;br&gt;&lt;/div&gt;&lt;div&gt;Provides all the functionality accessible to employees (planning of exams, arranging trainers, locations as well as exam-slot reservations for trainees)&lt;/div&gt;" placeholders="1" c4Name="name" c4Type="Container" c4Technology="technology" c4Description="Description" id="Go8YwYGk3AqesZHH6PMc-3">
          <mxCell style="rounded=1;whiteSpace=wrap;html=1;labelBackgroundColor=none;fillColor=#438dd5;fontColor=#ffffff;align=center;arcSize=6;strokeColor=#3c7fc0;" parent="1" vertex="1">
            <mxGeometry x="-544" y="-600" width="190" height="130" as="geometry" />
            <C4Container as="c4" />
          </mxCell>
        </object>
        <object label="&lt;b style=&quot;color: rgb(0 , 0 , 0)&quot;&gt;Learning Platform&lt;br&gt;[Software System]&lt;br&gt;web application for training related communication and online learning facilities&lt;/b&gt;" placeholders="1" c4Name="name" c4Type="Container" c4Technology="technology" c4Description="Description" id="Go8YwYGk3AqesZHH6PMc-7">
          <mxCell style="rounded=1;whiteSpace=wrap;html=1;labelBackgroundColor=none;fillColor=#DAE8FC;fontColor=#ffffff;align=center;arcSize=6;strokeColor=#3c7fc0;" parent="1" vertex="1">
            <mxGeometry x="-120" y="-600" width="190" height="130" as="geometry" />
            <C4Container as="c4" />
          </mxCell>
        </object>
        <object placeholders="1" c4Name="Exams Service" c4Type="Container" c4Technology="Web Api" c4Description="" label="&lt;b&gt;%c4Name%&lt;/b&gt;&lt;div&gt;[%c4Type%: %c4Technology%]&lt;/div&gt;&lt;br&gt;&lt;div&gt;%c4Description%&lt;/div&gt;" id="Go8YwYGk3AqesZHH6PMc-13">
          <mxCell style="rounded=1;whiteSpace=wrap;html=1;labelBackgroundColor=none;fillColor=#438DD5;fontColor=#ffffff;align=center;arcSize=10;strokeColor=#78A8D8;metaEdit=1;metaData={&quot;c4Type&quot;:{&quot;editable&quot;:false}};points=[[0.25,0,0],[0.5,0,0],[0.75,0,0],[1,0.25,0],[1,0.5,0],[1,0.75,0],[0.75,1,0],[0.5,1,0],[0.25,1,0],[0,0.75,0],[0,0.5,0],[0,0.25,0]];" parent="1" vertex="1">
            <mxGeometry x="-620" y="-282" width="160" height="110.00000000000001" as="geometry" />
          </mxCell>
        </object>
        <object placeholders="1" c4Type="Database" c4Technology="SQL Server" c4Description="Legacy &#39;LWM&#39; " label="%c4Type%&lt;div&gt;[Container:&amp;nbsp;%c4Technology%]&lt;/div&gt;&lt;br&gt;&lt;div&gt;%c4Description%&lt;/div&gt;" id="Go8YwYGk3AqesZHH6PMc-14">
          <mxCell style="shape=cylinder;whiteSpace=wrap;html=1;boundedLbl=1;rounded=0;labelBackgroundColor=none;fillColor=#438DD5;fontSize=12;fontColor=#ffffff;align=center;strokeColor=#3C7FC0;metaEdit=1;points=[[0.5,0,0],[1,0.25,0],[1,0.5,0],[1,0.75,0],[0.5,1,0],[0,0.75,0],[0,0.5,0],[0,0.25,0]];metaData={&quot;c4Type&quot;:{&quot;editable&quot;:false}};" parent="1" vertex="1">
            <mxGeometry x="-1580" y="-120" width="160" height="140" as="geometry" />
          </mxCell>
        </object>
        <object placeholders="1" c4Type="Relationship" c4Technology="" c4Description="reads&amp;writes" label="&lt;div style=&quot;text-align: left&quot;&gt;&lt;div style=&quot;text-align: center&quot;&gt;&lt;b&gt;%c4Description%&lt;/b&gt;&lt;/div&gt;&lt;div style=&quot;text-align: center&quot;&gt;[%c4Technology%]&lt;/div&gt;&lt;/div&gt;" id="Go8YwYGk3AqesZHH6PMc-16">
          <mxCell style="edgeStyle=none;rounded=0;html=1;jettySize=auto;orthogonalLoop=1;strokeColor=#707070;strokeWidth=2;fontColor=#707070;jumpStyle=none;dashed=1;metaEdit=1;metaData={&quot;c4Type&quot;:{&quot;editable&quot;:false}};" parent="1" target="Go8YwYGk3AqesZHH6PMc-20" edge="1">
            <mxGeometry width="160" relative="1" as="geometry">
              <mxPoint x="-260" y="-170" as="sourcePoint" />
              <mxPoint x="-370" y="-94.73684210526312" as="targetPoint" />
            </mxGeometry>
          </mxCell>
        </object>
        <object placeholders="1" c4Type="Relationship" c4Technology="EF" c4Description="reads/updates exmas with examination outcomes" label="&lt;div style=&quot;text-align: left&quot;&gt;&lt;div style=&quot;text-align: center&quot;&gt;&lt;b&gt;%c4Description%&lt;/b&gt;&lt;/div&gt;&lt;div style=&quot;text-align: center&quot;&gt;[%c4Technology%]&lt;/div&gt;&lt;/div&gt;" id="Go8YwYGk3AqesZHH6PMc-17">
          <mxCell style="edgeStyle=none;rounded=0;html=1;jettySize=auto;orthogonalLoop=1;strokeColor=#707070;strokeWidth=2;fontColor=#707070;jumpStyle=none;dashed=1;metaEdit=1;metaData={&quot;c4Type&quot;:{&quot;editable&quot;:false}};entryX=1.019;entryY=0.55;entryDx=0;entryDy=0;entryPerimeter=0;" parent="1" target="Go8YwYGk3AqesZHH6PMc-14" edge="1">
            <mxGeometry x="-0.331" y="-2" width="160" relative="1" as="geometry">
              <mxPoint x="-540" y="-165.26" as="sourcePoint" />
              <mxPoint x="-650" y="-89.99684210526311" as="targetPoint" />
              <Array as="points">
                <mxPoint x="-540" y="-40" />
              </Array>
              <mxPoint as="offset" />
            </mxGeometry>
          </mxCell>
        </object>
        <object placeholders="1" c4Name="ExamsPlanning Service" c4Type="Container" c4Technology="Web Api" c4Description="" label="&lt;b&gt;%c4Name%&lt;/b&gt;&lt;div&gt;[%c4Type%: %c4Technology%]&lt;/div&gt;&lt;br&gt;&lt;div&gt;%c4Description%&lt;/div&gt;" id="Go8YwYGk3AqesZHH6PMc-19">
          <mxCell style="rounded=1;whiteSpace=wrap;html=1;labelBackgroundColor=none;fillColor=#438DD5;fontColor=#ffffff;align=center;arcSize=10;strokeColor=#78A8D8;metaEdit=1;metaData={&quot;c4Type&quot;:{&quot;editable&quot;:false}};points=[[0.25,0,0],[0.5,0,0],[0.75,0,0],[1,0.25,0],[1,0.5,0],[1,0.75,0],[0.75,1,0],[0.5,1,0],[0.25,1,0],[0,0.75,0],[0,0.5,0],[0,0.25,0]];" parent="1" vertex="1">
            <mxGeometry x="-340" y="-280" width="160" height="110.00000000000001" as="geometry" />
          </mxCell>
        </object>
        <object placeholders="1" c4Type="Database" c4Technology="SQL Server" c4Description="Legacy &#39;LWM&#39; " label="%c4Type%&lt;div&gt;[Container:&amp;nbsp;%c4Technology%]&lt;/div&gt;&lt;br&gt;&lt;div&gt;%c4Description%&lt;/div&gt;" id="Go8YwYGk3AqesZHH6PMc-20">
          <mxCell style="shape=cylinder;whiteSpace=wrap;html=1;boundedLbl=1;rounded=0;labelBackgroundColor=none;fillColor=#438DD5;fontSize=12;fontColor=#ffffff;align=center;strokeColor=#3C7FC0;metaEdit=1;points=[[0.5,0,0],[1,0.25,0],[1,0.5,0],[1,0.75,0],[0.5,1,0],[0,0.75,0],[0,0.5,0],[0,0.25,0]];metaData={&quot;c4Type&quot;:{&quot;editable&quot;:false}};" parent="1" vertex="1">
            <mxGeometry x="-340" y="-90" width="160" height="140" as="geometry" />
          </mxCell>
        </object>
        <object placeholders="1" c4Type="Relationship" c4Technology="via browser" c4Description="apply to mark/supervise exams" label="&lt;div style=&quot;text-align: left&quot;&gt;&lt;div style=&quot;text-align: center&quot;&gt;&lt;b&gt;%c4Description%&lt;/b&gt;&lt;/div&gt;&lt;div style=&quot;text-align: center&quot;&gt;[%c4Technology%]&lt;/div&gt;&lt;/div&gt;" id="Go8YwYGk3AqesZHH6PMc-21">
          <mxCell style="edgeStyle=none;rounded=0;html=1;entryX=0.5;entryY=0;jettySize=auto;orthogonalLoop=1;strokeColor=#707070;strokeWidth=2;fontColor=#707070;jumpStyle=none;dashed=1;metaEdit=1;metaData={&quot;c4Type&quot;:{&quot;editable&quot;:false}};exitX=0.5;exitY=1;exitDx=0;exitDy=0;exitPerimeter=0;entryDx=0;entryDy=0;" parent="1" source="KyEjvWDegDpbveLdocbA-2" target="Go8YwYGk3AqesZHH6PMc-7" edge="1">
            <mxGeometry width="160" relative="1" as="geometry">
              <mxPoint x="-330" y="-680" as="sourcePoint" />
              <mxPoint x="-170" y="-680" as="targetPoint" />
            </mxGeometry>
          </mxCell>
        </object>
        <object placeholders="1" c4Type="Relationship" c4Technology="via browser" c4Description="applies for exam slots" label="&lt;div style=&quot;text-align: left&quot;&gt;&lt;div style=&quot;text-align: center&quot;&gt;&lt;b&gt;%c4Description%&lt;/b&gt;&lt;/div&gt;&lt;div style=&quot;text-align: center&quot;&gt;[%c4Technology%]&lt;/div&gt;&lt;/div&gt;" id="Go8YwYGk3AqesZHH6PMc-22">
          <mxCell style="edgeStyle=none;rounded=0;html=1;entryX=0.5;entryY=0;jettySize=auto;orthogonalLoop=1;strokeColor=#707070;strokeWidth=2;fontColor=#707070;jumpStyle=none;dashed=1;metaEdit=1;metaData={&quot;c4Type&quot;:{&quot;editable&quot;:false}};exitX=0.447;exitY=1.006;exitDx=0;exitDy=0;exitPerimeter=0;entryDx=0;entryDy=0;" parent="1" source="KyEjvWDegDpbveLdocbA-3" target="Go8YwYGk3AqesZHH6PMc-7" edge="1">
            <mxGeometry x="-0.2998" y="-1" width="160" relative="1" as="geometry">
              <mxPoint x="-40" y="-710" as="sourcePoint" />
              <mxPoint x="120" y="-710" as="targetPoint" />
              <mxPoint x="-1" as="offset" />
            </mxGeometry>
          </mxCell>
        </object>
        <object placeholders="1" c4Type="Relationship" c4Technology="SMTP" c4Description="sends emails" label="&lt;div style=&quot;text-align: left&quot;&gt;&lt;div style=&quot;text-align: center&quot;&gt;&lt;b&gt;%c4Description%&lt;/b&gt;&lt;/div&gt;&lt;div style=&quot;text-align: center&quot;&gt;[%c4Technology%]&lt;/div&gt;&lt;/div&gt;" id="Go8YwYGk3AqesZHH6PMc-24">
          <mxCell style="edgeStyle=none;rounded=0;html=1;entryX=0.008;entryY=0.461;jettySize=auto;orthogonalLoop=1;strokeColor=#707070;strokeWidth=2;fontColor=#707070;jumpStyle=none;dashed=1;metaEdit=1;metaData={&quot;c4Type&quot;:{&quot;editable&quot;:false}};entryDx=0;entryDy=0;entryPerimeter=0;exitX=1.013;exitY=0.436;exitDx=0;exitDy=0;exitPerimeter=0;" parent="1" source="Go8YwYGk3AqesZHH6PMc-19" target="1jzdavhGLnp2UJtIogLx-2" edge="1">
            <mxGeometry width="160" relative="1" as="geometry">
              <mxPoint x="-210" y="-320" as="sourcePoint" />
              <mxPoint x="-50" y="-320" as="targetPoint" />
              <Array as="points">
                <mxPoint x="110" y="-232" />
                <mxPoint x="140" y="-232" />
                <mxPoint x="170" y="-232" />
                <mxPoint x="210" y="-232" />
              </Array>
            </mxGeometry>
          </mxCell>
        </object>
        <object placeholders="1" c4Type="Relationship" c4Technology="Rest API calls" c4Description="updates available exam-plannings" label="&lt;div style=&quot;text-align: left&quot;&gt;&lt;div style=&quot;text-align: center&quot;&gt;&lt;b&gt;%c4Description%&lt;/b&gt;&lt;/div&gt;&lt;div style=&quot;text-align: center&quot;&gt;[%c4Technology%]&lt;/div&gt;&lt;/div&gt;" id="Go8YwYGk3AqesZHH6PMc-25">
          <mxCell style="edgeStyle=none;rounded=0;html=1;entryX=0.456;entryY=-0.009;jettySize=auto;orthogonalLoop=1;strokeColor=#707070;strokeWidth=2;fontColor=#707070;jumpStyle=none;dashed=1;metaEdit=1;metaData={&quot;c4Type&quot;:{&quot;editable&quot;:false}};entryDx=0;entryDy=0;entryPerimeter=0;" parent="1" target="Go8YwYGk3AqesZHH6PMc-19" edge="1">
            <mxGeometry width="160" relative="1" as="geometry">
              <mxPoint x="-80" y="-470" as="sourcePoint" />
              <mxPoint x="80" y="-470" as="targetPoint" />
            </mxGeometry>
          </mxCell>
        </object>
        <object placeholders="1" c4Type="Relationship" c4Technology="Rest API calls" c4Description="mark exams as plannable&#xa;create exam plannings " label="&lt;div style=&quot;text-align: left&quot;&gt;&lt;div style=&quot;text-align: center&quot;&gt;&lt;b&gt;%c4Description%&lt;/b&gt;&lt;/div&gt;&lt;div style=&quot;text-align: center&quot;&gt;[%c4Technology%]&lt;/div&gt;&lt;/div&gt;" id="Go8YwYGk3AqesZHH6PMc-26">
          <mxCell style="edgeStyle=none;rounded=0;html=1;jettySize=auto;orthogonalLoop=1;strokeColor=#707070;strokeWidth=2;fontColor=#707070;jumpStyle=none;dashed=1;metaEdit=1;metaData={&quot;c4Type&quot;:{&quot;editable&quot;:false}};entryX=0.425;entryY=-0.018;entryDx=0;entryDy=0;entryPerimeter=0;exitX=0.547;exitY=1;exitDx=0;exitDy=0;exitPerimeter=0;" parent="1" source="Go8YwYGk3AqesZHH6PMc-3" target="Go8YwYGk3AqesZHH6PMc-19" edge="1">
            <mxGeometry width="160" relative="1" as="geometry">
              <mxPoint x="-445" y="-470" as="sourcePoint" />
              <mxPoint x="-445" y="-310" as="targetPoint" />
              <Array as="points" />
            </mxGeometry>
          </mxCell>
        </object>
        <object placeholders="1" c4Type="Relationship" c4Technology="Rest API" c4Description="update exams " label="&lt;div style=&quot;text-align: left&quot;&gt;&lt;div style=&quot;text-align: center&quot;&gt;&lt;b&gt;%c4Description%&lt;/b&gt;&lt;/div&gt;&lt;div style=&quot;text-align: center&quot;&gt;[%c4Technology%]&lt;/div&gt;&lt;/div&gt;" id="Go8YwYGk3AqesZHH6PMc-32">
          <mxCell style="edgeStyle=none;rounded=0;html=1;entryX=1.013;entryY=0.355;jettySize=auto;orthogonalLoop=1;strokeColor=#707070;strokeWidth=2;fontColor=#707070;jumpStyle=none;dashed=1;metaEdit=1;metaData={&quot;c4Type&quot;:{&quot;editable&quot;:false}};exitX=-0.006;exitY=0.355;exitDx=0;exitDy=0;exitPerimeter=0;entryDx=0;entryDy=0;entryPerimeter=0;" parent="1" source="Go8YwYGk3AqesZHH6PMc-19" target="Go8YwYGk3AqesZHH6PMc-13" edge="1">
            <mxGeometry width="160" relative="1" as="geometry">
              <mxPoint x="-1070" y="-430" as="sourcePoint" />
              <mxPoint x="-910" y="-430" as="targetPoint" />
              <Array as="points">
                <mxPoint x="-410" y="-243" />
              </Array>
            </mxGeometry>
          </mxCell>
        </object>
        <object placeholders="1" c4Type="Relationship" c4Technology="Rest API calls" c4Description="gets trainers data" label="&lt;div style=&quot;text-align: left&quot;&gt;&lt;div style=&quot;text-align: center&quot;&gt;&lt;b&gt;%c4Description%&lt;/b&gt;&lt;/div&gt;&lt;div style=&quot;text-align: center&quot;&gt;[%c4Technology%]&lt;/div&gt;&lt;/div&gt;" id="Go8YwYGk3AqesZHH6PMc-34">
          <mxCell style="edgeStyle=none;rounded=0;html=1;jettySize=auto;orthogonalLoop=1;strokeColor=#707070;strokeWidth=2;fontColor=#707070;jumpStyle=none;dashed=1;metaEdit=1;metaData={&quot;c4Type&quot;:{&quot;editable&quot;:false}};exitX=0.188;exitY=0;exitDx=0;exitDy=0;exitPerimeter=0;entryX=0.5;entryY=0;entryDx=0;entryDy=0;entryPerimeter=0;" parent="1" source="Go8YwYGk3AqesZHH6PMc-19" target="1jzdavhGLnp2UJtIogLx-5" edge="1">
            <mxGeometry x="0.8" width="160" relative="1" as="geometry">
              <mxPoint x="-980" y="-410" as="sourcePoint" />
              <mxPoint x="-1240" y="-310" as="targetPoint" />
              <Array as="points">
                <mxPoint x="-310" y="-310" />
                <mxPoint x="-1250" y="-310" />
              </Array>
              <mxPoint as="offset" />
            </mxGeometry>
          </mxCell>
        </object>
        <object placeholders="1" c4Type="Relationship" c4Technology="Rest API calls" c4Description="get trainees data" label="&lt;div style=&quot;text-align: left&quot;&gt;&lt;div style=&quot;text-align: center&quot;&gt;&lt;b&gt;%c4Description%&lt;/b&gt;&lt;/div&gt;&lt;div style=&quot;text-align: center&quot;&gt;[%c4Technology%]&lt;/div&gt;&lt;/div&gt;" id="Go8YwYGk3AqesZHH6PMc-35">
          <mxCell style="edgeStyle=none;rounded=0;html=1;jettySize=auto;orthogonalLoop=1;strokeColor=#707070;strokeWidth=2;fontColor=#707070;jumpStyle=none;dashed=1;metaEdit=1;metaData={&quot;c4Type&quot;:{&quot;editable&quot;:false}};exitX=0.119;exitY=0.009;exitDx=0;exitDy=0;exitPerimeter=0;" parent="1" source="Go8YwYGk3AqesZHH6PMc-19" target="1jzdavhGLnp2UJtIogLx-6" edge="1">
            <mxGeometry x="0.5473" width="160" relative="1" as="geometry">
              <mxPoint x="-540" y="-330" as="sourcePoint" />
              <mxPoint x="-1020" y="-310" as="targetPoint" />
              <Array as="points">
                <mxPoint x="-320" y="-300" />
                <mxPoint x="-1030" y="-300" />
              </Array>
              <mxPoint as="offset" />
            </mxGeometry>
          </mxCell>
        </object>
        <object placeholders="1" c4Type="Relationship" c4Technology="Rest API calls" c4Description="gets exam data" label="&lt;div style=&quot;text-align: left&quot;&gt;&lt;div style=&quot;text-align: center&quot;&gt;&lt;b&gt;%c4Description%&lt;/b&gt;&lt;/div&gt;&lt;div style=&quot;text-align: center&quot;&gt;[%c4Technology%]&lt;/div&gt;&lt;/div&gt;" id="Go8YwYGk3AqesZHH6PMc-39">
          <mxCell style="edgeStyle=none;rounded=0;html=1;jettySize=auto;orthogonalLoop=1;strokeColor=#707070;strokeWidth=2;fontColor=#707070;jumpStyle=none;dashed=1;metaEdit=1;metaData={&quot;c4Type&quot;:{&quot;editable&quot;:false}};entryX=0.588;entryY=0;entryDx=0;entryDy=0;entryPerimeter=0;" parent="1" target="Go8YwYGk3AqesZHH6PMc-13" edge="1">
            <mxGeometry width="160" relative="1" as="geometry">
              <mxPoint x="-330" y="-281" as="sourcePoint" />
              <mxPoint x="-522" y="-290" as="targetPoint" />
              <Array as="points">
                <mxPoint x="-330" y="-290" />
                <mxPoint x="-526" y="-290" />
              </Array>
            </mxGeometry>
          </mxCell>
        </object>
        <object placeholders="1" c4Type="Relationship" c4Technology="via desktop" c4Description="create exams, managres locations, trainers, trainees.." label="&lt;div style=&quot;text-align: left&quot;&gt;&lt;div style=&quot;text-align: center&quot;&gt;&lt;b&gt;%c4Description%&lt;/b&gt;&lt;/div&gt;&lt;div style=&quot;text-align: center&quot;&gt;[%c4Technology%]&lt;/div&gt;&lt;/div&gt;" id="Go8YwYGk3AqesZHH6PMc-41">
          <mxCell style="edgeStyle=none;rounded=0;html=1;jettySize=auto;orthogonalLoop=1;strokeColor=#707070;strokeWidth=2;fontColor=#707070;jumpStyle=none;dashed=1;metaEdit=1;metaData={&quot;c4Type&quot;:{&quot;editable&quot;:false}};exitX=0.013;exitY=0.613;exitDx=0;exitDy=0;exitPerimeter=0;entryX=0.468;entryY=-0.008;entryDx=0;entryDy=0;entryPerimeter=0;" parent="1" source="bMi5j8niDINSL1hWA75Q-1" target="1jzdavhGLnp2UJtIogLx-1" edge="1">
            <mxGeometry x="-0.3375" y="1" width="160" relative="1" as="geometry">
              <mxPoint x="-1510" y="-670" as="sourcePoint" />
              <mxPoint x="-1530" y="-870" as="targetPoint" />
              <Array as="points">
                <mxPoint x="-1511" y="-860" />
              </Array>
              <mxPoint as="offset" />
            </mxGeometry>
          </mxCell>
        </object>
        <object placeholders="1" c4Type="Relationship" c4Technology="EF" c4Description="read trainers data" label="&lt;div style=&quot;text-align: left&quot;&gt;&lt;div style=&quot;text-align: center&quot;&gt;&lt;b&gt;%c4Description%&lt;/b&gt;&lt;/div&gt;&lt;div style=&quot;text-align: center&quot;&gt;[%c4Technology%]&lt;/div&gt;&lt;/div&gt;" id="Go8YwYGk3AqesZHH6PMc-42">
          <mxCell style="edgeStyle=none;rounded=0;html=1;jettySize=auto;orthogonalLoop=1;strokeColor=#707070;strokeWidth=2;fontColor=#707070;jumpStyle=none;dashed=1;metaEdit=1;metaData={&quot;c4Type&quot;:{&quot;editable&quot;:false}};exitX=0.563;exitY=1;exitDx=0;exitDy=0;exitPerimeter=0;entryX=0.622;entryY=0.007;entryDx=0;entryDy=0;entryPerimeter=0;" parent="1" source="1jzdavhGLnp2UJtIogLx-5" target="Go8YwYGk3AqesZHH6PMc-14" edge="1">
            <mxGeometry width="160" relative="1" as="geometry">
              <mxPoint x="-1270" y="-150" as="sourcePoint" />
              <mxPoint x="-1465" y="-117" as="targetPoint" />
              <Array as="points">
                <mxPoint x="-1240" y="-150" />
                <mxPoint x="-1480" y="-150" />
              </Array>
            </mxGeometry>
          </mxCell>
        </object>
        <object placeholders="1" c4Type="Relationship" c4Technology="EF" c4Description="read trainees data" label="&lt;div style=&quot;text-align: left&quot;&gt;&lt;div style=&quot;text-align: center&quot;&gt;&lt;b&gt;%c4Description%&lt;/b&gt;&lt;/div&gt;&lt;div style=&quot;text-align: center&quot;&gt;[%c4Technology%]&lt;/div&gt;&lt;/div&gt;" id="Go8YwYGk3AqesZHH6PMc-43">
          <mxCell style="edgeStyle=none;rounded=0;html=1;jettySize=auto;orthogonalLoop=1;strokeColor=#707070;strokeWidth=2;fontColor=#707070;jumpStyle=none;dashed=1;metaEdit=1;metaData={&quot;c4Type&quot;:{&quot;editable&quot;:false}};exitX=0.491;exitY=1.032;exitDx=0;exitDy=0;exitPerimeter=0;entryX=1;entryY=0.286;entryDx=0;entryDy=0;entryPerimeter=0;" parent="1" source="1jzdavhGLnp2UJtIogLx-6" target="Go8YwYGk3AqesZHH6PMc-14" edge="1">
            <mxGeometry width="160" relative="1" as="geometry">
              <mxPoint x="-1210" y="-110" as="sourcePoint" />
              <mxPoint x="-1050" y="-110" as="targetPoint" />
              <Array as="points">
                <mxPoint x="-1031" y="-80" />
              </Array>
            </mxGeometry>
          </mxCell>
        </object>
        <object placeholders="1" c4Type="Relationship" c4Technology="EF" c4Description="read location data" label="&lt;div style=&quot;text-align: left&quot;&gt;&lt;div style=&quot;text-align: center&quot;&gt;&lt;b&gt;%c4Description%&lt;/b&gt;&lt;/div&gt;&lt;div style=&quot;text-align: center&quot;&gt;[%c4Technology%]&lt;/div&gt;&lt;/div&gt;" id="Go8YwYGk3AqesZHH6PMc-44">
          <mxCell style="edgeStyle=none;rounded=0;html=1;jettySize=auto;orthogonalLoop=1;strokeColor=#707070;strokeWidth=2;fontColor=#707070;jumpStyle=none;dashed=1;metaEdit=1;metaData={&quot;c4Type&quot;:{&quot;editable&quot;:false}};exitX=0.5;exitY=1;exitDx=0;exitDy=0;exitPerimeter=0;entryX=1.013;entryY=0.432;entryDx=0;entryDy=0;entryPerimeter=0;" parent="1" source="1jzdavhGLnp2UJtIogLx-10" target="Go8YwYGk3AqesZHH6PMc-14" edge="1">
            <mxGeometry width="160" relative="1" as="geometry">
              <mxPoint x="-860" y="-120" as="sourcePoint" />
              <mxPoint x="-1020" y="-70" as="targetPoint" />
              <Array as="points">
                <mxPoint x="-780" y="-60" />
              </Array>
            </mxGeometry>
          </mxCell>
        </object>
        <object placeholders="1" c4Type="Relationship" c4Technology="" c4Description="read/write...everything" label="&lt;div style=&quot;text-align: left&quot;&gt;&lt;div style=&quot;text-align: center&quot;&gt;&lt;b&gt;%c4Description%&lt;/b&gt;&lt;/div&gt;&lt;div style=&quot;text-align: center&quot;&gt;[%c4Technology%]&lt;/div&gt;&lt;/div&gt;" id="Go8YwYGk3AqesZHH6PMc-45">
          <mxCell style="edgeStyle=none;rounded=0;html=1;jettySize=auto;orthogonalLoop=1;strokeColor=#707070;strokeWidth=2;fontColor=#707070;jumpStyle=none;dashed=1;metaEdit=1;metaData={&quot;c4Type&quot;:{&quot;editable&quot;:false}};exitX=0.5;exitY=1;exitDx=0;exitDy=0;exitPerimeter=0;" parent="1" source="1jzdavhGLnp2UJtIogLx-1" edge="1">
            <mxGeometry width="160" relative="1" as="geometry">
              <mxPoint x="-1520" y="-460" as="sourcePoint" />
              <mxPoint x="-1505" y="-122" as="targetPoint" />
            </mxGeometry>
          </mxCell>
        </object>
        <mxCell id="Go8YwYGk3AqesZHH6PMc-46" value="" style="endArrow=none;dashed=1;html=1;" parent="1" edge="1">
          <mxGeometry width="50" height="50" relative="1" as="geometry">
            <mxPoint x="-1380" y="120" as="sourcePoint" />
            <mxPoint x="-1380" y="-640" as="targetPoint" />
          </mxGeometry>
        </mxCell>
        <mxCell id="Go8YwYGk3AqesZHH6PMc-47" value="" style="endArrow=none;dashed=1;html=1;" parent="1" edge="1">
          <mxGeometry width="50" height="50" relative="1" as="geometry">
            <mxPoint x="-1380" y="120" as="sourcePoint" />
            <mxPoint x="-150" y="120" as="targetPoint" />
          </mxGeometry>
        </mxCell>
        <mxCell id="Go8YwYGk3AqesZHH6PMc-49" value="" style="endArrow=none;dashed=1;html=1;" parent="1" edge="1">
          <mxGeometry width="50" height="50" relative="1" as="geometry">
            <mxPoint x="-150" y="120" as="sourcePoint" />
            <mxPoint x="-150" y="-640" as="targetPoint" />
          </mxGeometry>
        </mxCell>
        <mxCell id="Go8YwYGk3AqesZHH6PMc-50" value="" style="endArrow=none;dashed=1;html=1;" parent="1" edge="1">
          <mxGeometry width="50" height="50" relative="1" as="geometry">
            <mxPoint x="-1380" y="-640" as="sourcePoint" />
            <mxPoint x="-150" y="-640" as="targetPoint" />
          </mxGeometry>
        </mxCell>
        <mxCell id="Go8YwYGk3AqesZHH6PMc-51" value="digital e&lt;b&gt;X&lt;/b&gt;a&lt;b&gt;M&lt;/b&gt; &lt;b&gt;Planning&lt;br&gt;[SoftwareSystem]&lt;br&gt;&lt;/b&gt;" style="text;html=1;strokeColor=none;fillColor=none;align=center;verticalAlign=middle;whiteSpace=wrap;rounded=0;" parent="1" vertex="1">
          <mxGeometry x="-1320" y="-620" width="140" height="50" as="geometry" />
        </mxCell>
        <object placeholders="1" c4Type="Relationship" c4Technology="via browser" c4Description="mark exams as plannable, create exam plannings" label="&lt;div style=&quot;text-align: left&quot;&gt;&lt;div style=&quot;text-align: center&quot;&gt;&lt;b&gt;%c4Description%&lt;/b&gt;&lt;/div&gt;&lt;div style=&quot;text-align: center&quot;&gt;[%c4Technology%]&lt;/div&gt;&lt;/div&gt;" id="Go8YwYGk3AqesZHH6PMc-52">
          <mxCell style="edgeStyle=none;rounded=0;html=1;entryX=0.447;entryY=0.008;jettySize=auto;orthogonalLoop=1;strokeColor=#707070;strokeWidth=2;fontColor=#707070;jumpStyle=none;dashed=1;metaEdit=1;metaData={&quot;c4Type&quot;:{&quot;editable&quot;:false}};entryDx=0;entryDy=0;exitX=0.5;exitY=1;exitDx=0;exitDy=0;exitPerimeter=0;entryPerimeter=0;" parent="1" source="bMi5j8niDINSL1hWA75Q-1" target="Go8YwYGk3AqesZHH6PMc-3" edge="1">
            <mxGeometry width="160" relative="1" as="geometry">
              <mxPoint x="-470" y="-800" as="sourcePoint" />
              <mxPoint x="-310" y="-800" as="targetPoint" />
            </mxGeometry>
          </mxCell>
        </object>
        <mxCell id="CscInth7BHx8kABMzDn7-1" value="" style="endArrow=none;dashed=1;html=1;dashPattern=1 3;strokeWidth=2;" edge="1" parent="1">
          <mxGeometry width="50" height="50" relative="1" as="geometry">
            <mxPoint x="-1620" y="290" as="sourcePoint" />
            <mxPoint x="-1620" y="160" as="targetPoint" />
          </mxGeometry>
        </mxCell>
        <mxCell id="CscInth7BHx8kABMzDn7-2" value="" style="endArrow=none;dashed=1;html=1;dashPattern=1 3;strokeWidth=2;" edge="1" parent="1">
          <mxGeometry width="50" height="50" relative="1" as="geometry">
            <mxPoint x="-1140" y="160" as="sourcePoint" />
            <mxPoint x="-1620" y="160" as="targetPoint" />
          </mxGeometry>
        </mxCell>
        <object label="&lt;div style=&quot;text-align: left&quot;&gt;&lt;div style=&quot;text-align: center&quot;&gt;&lt;b&gt;any call&lt;/b&gt;&lt;/div&gt;&lt;div style=&quot;text-align: center&quot;&gt;[REST API]&lt;/div&gt;&lt;/div&gt;" c4Type="Relationship" c4Description="Description" c4Technology="technology" id="CscInth7BHx8kABMzDn7-3">
          <mxCell style="edgeStyle=none;rounded=0;html=1;jettySize=auto;orthogonalLoop=1;strokeColor=#707070;strokeWidth=2;fontColor=#707070;jumpStyle=none;dashed=1;" edge="1" parent="1">
            <mxGeometry width="160" relative="1" as="geometry">
              <mxPoint x="-1610" y="240" as="sourcePoint" />
              <mxPoint x="-1490" y="240" as="targetPoint" />
            </mxGeometry>
            <C4Relationship as="c4" />
          </mxCell>
        </object>
        <mxCell id="CscInth7BHx8kABMzDn7-4" value="&lt;b&gt;all REST API calls are made via Azure API Gateway&lt;/b&gt;" style="text;html=1;strokeColor=none;fillColor=none;align=center;verticalAlign=middle;whiteSpace=wrap;rounded=0;" vertex="1" parent="1">
          <mxGeometry x="-1470" y="230" width="310" height="20" as="geometry" />
        </mxCell>
        <mxCell id="CscInth7BHx8kABMzDn7-5" value="&lt;b&gt;&lt;font style=&quot;font-size: 14px&quot;&gt;Legend&lt;/font&gt;&lt;/b&gt;" style="text;html=1;strokeColor=none;fillColor=none;align=center;verticalAlign=middle;whiteSpace=wrap;rounded=0;" vertex="1" parent="1">
          <mxGeometry x="-1600" y="180" width="40" height="20" as="geometry" />
        </mxCell>
        <mxCell id="CscInth7BHx8kABMzDn7-6" value="" style="endArrow=none;dashed=1;html=1;dashPattern=1 3;strokeWidth=2;" edge="1" parent="1">
          <mxGeometry width="50" height="50" relative="1" as="geometry">
            <mxPoint x="-1140" y="290" as="sourcePoint" />
            <mxPoint x="-1620" y="290" as="targetPoint" />
            <Array as="points">
              <mxPoint x="-1380" y="290" />
            </Array>
          </mxGeometry>
        </mxCell>
        <mxCell id="CscInth7BHx8kABMzDn7-7" value="" style="endArrow=none;dashed=1;html=1;dashPattern=1 3;strokeWidth=2;" edge="1" parent="1">
          <mxGeometry width="50" height="50" relative="1" as="geometry">
            <mxPoint x="-1140" y="290" as="sourcePoint" />
            <mxPoint x="-1140" y="160" as="targetPoint" />
          </mxGeometry>
        </mxCell>
        <object placeholders="1" c4Type="Relationship" c4Technology="technology" c4Description="Description" label="&lt;div style=&quot;text-align: left&quot;&gt;&lt;div style=&quot;text-align: center&quot;&gt;&lt;b&gt;%c4Description%&lt;/b&gt;&lt;/div&gt;&lt;div style=&quot;text-align: center&quot;&gt;[%c4Technology%]&lt;/div&gt;&lt;/div&gt;" id="CscInth7BHx8kABMzDn7-8">
          <mxCell style="edgeStyle=none;rounded=0;html=1;entryX=0;entryY=0.5;jettySize=auto;orthogonalLoop=1;strokeColor=#707070;strokeWidth=2;fontColor=#707070;jumpStyle=none;dashed=1;metaEdit=1;metaData={&quot;c4Type&quot;:{&quot;editable&quot;:false}};" edge="1" parent="1">
            <mxGeometry width="160" relative="1" as="geometry">
              <mxPoint x="-3490" y="250" as="sourcePoint" />
              <mxPoint x="-3330" y="250" as="targetPoint" />
            </mxGeometry>
          </mxCell>
        </object>
        <object placeholders="1" c4Type="Relationship" c4Technology="technology" c4Description="Description" label="&lt;div style=&quot;text-align: left&quot;&gt;&lt;div style=&quot;text-align: center&quot;&gt;&lt;b&gt;%c4Description%&lt;/b&gt;&lt;/div&gt;&lt;div style=&quot;text-align: center&quot;&gt;[%c4Technology%]&lt;/div&gt;&lt;/div&gt;" id="CscInth7BHx8kABMzDn7-9">
          <mxCell style="edgeStyle=none;rounded=0;html=1;jettySize=auto;orthogonalLoop=1;strokeColor=#707070;strokeWidth=2;fontColor=#707070;jumpStyle=none;dashed=1;metaEdit=1;metaData={&quot;c4Type&quot;:{&quot;editable&quot;:false}};exitX=0.547;exitY=0.992;exitDx=0;exitDy=0;exitPerimeter=0;" edge="1" parent="1" source="Go8YwYGk3AqesZHH6PMc-3">
            <mxGeometry x="-0.4619" y="3" width="160" relative="1" as="geometry">
              <mxPoint x="-450" y="-460" as="sourcePoint" />
              <mxPoint x="-560" y="-287" as="targetPoint" />
              <mxPoint as="offset" />
            </mxGeometry>
          </mxCell>
        </object>
        <object label="&lt;div style=&quot;text-align: left&quot;&gt;&lt;div style=&quot;text-align: center&quot;&gt;&lt;b&gt;Description&lt;/b&gt;&lt;/div&gt;&lt;div style=&quot;text-align: center&quot;&gt;[technology]&lt;/div&gt;&lt;/div&gt;" c4Type="Relationship" c4Description="Description" c4Technology="technology" id="CscInth7BHx8kABMzDn7-11">
          <mxCell style="edgeStyle=none;rounded=0;html=1;entryX=0.456;entryY=-0.009;jettySize=auto;orthogonalLoop=1;strokeColor=#707070;strokeWidth=2;fontColor=#707070;jumpStyle=none;dashed=1;entryDx=0;entryDy=0;entryPerimeter=0;exitX=0.211;exitY=1.008;exitDx=0;exitDy=0;exitPerimeter=0;" edge="1" parent="1" source="Go8YwYGk3AqesZHH6PMc-7" target="1jzdavhGLnp2UJtIogLx-10">
            <mxGeometry x="-0.6888" width="160" relative="1" as="geometry">
              <mxPoint x="-150" y="-560" as="sourcePoint" />
              <mxPoint x="-130" y="-460" as="targetPoint" />
              <mxPoint as="offset" />
            </mxGeometry>
            <C4Relationship as="c4" />
          </mxCell>
        </object>
      </root>
    </mxGraphModel>
  </diagram>
</mxfile>
